
		<svg xmlns="http://www.w3.org/2000/svg" xmlns:xlink="http://www.w3.org/1999/xlink" version="1.1" width="3099.429461965884" height="681.7077109214622">
			
			<g transform="scale(4.9714730982942115) translate(10, 10)">
				<defs id="SvgjsDefs2393"></defs><g id="SvgjsG2394" featureKey="root" fill="#000000" transform="matrix(1,0,0,1,NaN,NaN)"></g><g id="SvgjsG2395" featureKey="symbol1" fill="#5fb3ff" transform="matrix(5.200186269944364,0,0,5.200186269944364,3.120005024386657,10.00063478836303)"><g xmlns="http://www.w3.org/2000/svg" transform="translate(-270 -1700)"><g xmlns="http://www.w3.org/2000/svg" xmlns:xlink="http://www.w3.org/1999/xlink"><path d="M285.465,1701.707c0.391-0.391,0.391-1.023,0-1.414c-0.391-0.391-1.023-0.391-1.414,0l-2.829,2.828l1.414,1.414    L285.465,1701.707z"></path><path d="M286.879,1708.778l2.828-2.829c0.391-0.391,0.391-1.023,0-1.414c-0.391-0.391-1.023-0.391-1.414,0l-2.828,2.829    L286.879,1708.778z"></path><path d="M279.101,1702.414l-2.828,2.828c-2.101,2.102-2.303,5.365-0.636,7.707l-4.314,4.314l1.414,1.414l4.314-4.314    c2.343,1.667,5.605,1.465,7.707-0.635l2.828-2.829L279.101,1702.414z M283.344,1712.314l-5.657-5.658l1.414-1.414l5.657,5.657    L283.344,1712.314z"></path></g></g></g><g id="SvgjsG2396" featureKey="text1" fill="#ffffff" transform="matrix(4.184099817365409,0,0,4.184099817365409,123.73640226216304,4.564862413545846)"><path d="M5.5 20 l-2.7 -10.14 l-0.04 0 l0 10.14 l-1.98 0 l0 -14 l2.76 0 l2.22 8.38 l0.04 0 l0 -8.38 l1.96 0 l0 14 l-2.26 0 z M9.24 6 l2.2 0 l0 10.8 c0 1 0.44 1.36 1.14 1.36 s1.14 -0.36 1.14 -1.36 l0 -10.8 l2.08 0 l0 10.66 c0 2.24 -1.12 3.52 -3.28 3.52 s-3.28 -1.28 -3.28 -3.52 l0 -10.66 z M17.02 9.36 c0 -2.24 1.1 -3.52 3.24 -3.52 s3.24 1.28 3.24 3.52 l0 0.44 l-2.08 0 l0 -0.58 c0 -1 -0.4 -1.38 -1.1 -1.38 s-1.1 0.38 -1.1 1.38 c0 1.02 0.44 1.78 1.88 3.04 c1.84 1.62 2.42 2.78 2.42 4.38 c0 2.24 -1.12 3.52 -3.28 3.52 s-3.28 -1.28 -3.28 -3.52 l0 -0.86 l2.08 0 l0 1 c0 1 0.44 1.36 1.14 1.36 s1.14 -0.36 1.14 -1.36 c0 -1.02 -0.44 -1.78 -1.88 -3.04 c-1.84 -1.62 -2.42 -2.78 -2.42 -4.38 z M29.66 6 l2.24 14 l-2.22 0 l-0.38 -2.54 l-2.7 0 l-0.38 2.54 l-2.02 0 l2.24 -14 l3.22 0 z M27.92 8.48 l-1.04 7.08 l2.12 0 l-1.04 -7.08 l-0.04 0 z M37.620000000000005 20 l-2.7 -10.14 l-0.04 0 l0 10.14 l-1.98 0 l0 -14 l2.76 0 l2.22 8.38 l0.04 0 l0 -8.38 l1.96 0 l0 14 l-2.26 0 z M40.82 8 l0 -2 l6.8 0 l0 2 l-2.3 0 l0 12 l-2.2 0 l0 -12 l-2.3 0 z M53.46 6 l2.24 14 l-2.22 0 l-0.38 -2.54 l-2.7 0 l-0.38 2.54 l-2.02 0 l2.24 -14 l3.22 0 z M51.72 8.48 l-1.04 7.08 l2.12 0 l-1.04 -7.08 l-0.04 0 z M63.56 20 l-2.24 0 c-0.12 -0.36 -0.2 -0.58 -0.2 -1.72 l0 -2.2 c0 -1.3 -0.44 -1.78 -1.44 -1.78 l-0.76 0 l0 5.7 l-2.2 0 l0 -14 l3.32 0 c2.28 0 3.26 1.06 3.26 3.22 l0 1.1 c0 1.44 -0.46 2.36 -1.44 2.82 l0 0.04 c1.1 0.46 1.46 1.5 1.46 2.96 l0 2.16 c0 0.68 0.02 1.18 0.24 1.7 z M59.980000000000004 8 l-1.06 0 l0 4.3 l0.86 0 c0.82 0 1.32 -0.36 1.32 -1.48 l0 -1.38 c0 -1 -0.34 -1.44 -1.12 -1.44 z M69.64 6 l2.24 14 l-2.22 0 l-0.38 -2.54 l-2.7 0 l-0.38 2.54 l-2.02 0 l2.24 -14 l3.22 0 z M67.9 8.48 l-1.04 7.08 l2.12 0 l-1.04 -7.08 l-0.04 0 z M72.8 14 l0 -2 l4 0 l0 2 l-4 0 z M81.6 14.2 l0 -2 l3.08 0 l0 4.44 c0 2.24 -1.12 3.52 -3.28 3.52 s-3.28 -1.28 -3.28 -3.52 l0 -7.28 c0 -2.24 1.12 -3.52 3.28 -3.52 s3.28 1.28 3.28 3.52 l0 1.36 l-2.08 0 l0 -1.5 c0 -1 -0.44 -1.38 -1.14 -1.38 s-1.14 0.38 -1.14 1.38 l0 7.56 c0 1 0.44 1.36 1.14 1.36 s1.14 -0.36 1.14 -1.36 l0 -2.58 l-1 0 z M86.1 20 l0 -14 l2.2 0 l0 14 l-2.2 0 z M89.75999999999999 6 l6.24 0 l0 1.96 l-4.18 10.04 l4.18 0 l0 2 l-6.44 0 l0 -1.96 l4.18 -10.04 l-3.98 0 l0 -2 z M100.34 6 l1.6 9.94 l0.04 0 l1.48 -9.94 l3.06 0 l0 14 l-2.08 0 l0 -10.04 l-0.04 0 l-1.48 10.04 l-2.08 0 l-1.6 -9.9 l-0.04 0 l0 9.9 l-1.92 0 l0 -14 l3.06 0 z M110.13999999999999 9.22 l0 7.56 c0 1 0.44 1.38 1.14 1.38 s1.14 -0.38 1.14 -1.38 l0 -7.56 c0 -1 -0.44 -1.38 -1.14 -1.38 s-1.14 0.38 -1.14 1.38 z M107.94 16.64 l0 -7.28 c0 -2.24 1.18 -3.52 3.34 -3.52 s3.34 1.28 3.34 3.52 l0 7.28 c0 2.24 -1.18 3.52 -3.34 3.52 s-3.34 -1.28 -3.34 -3.52 z"></path></g>
			</g>
		</svg>
	